<?xml version="1.0" encoding="UTF-8"?>
<svg width="1250px" height="76px" viewBox="0 0 1250 76" version="1.1" xmlns="http://www.w3.org/2000/svg" xmlns:xlink="http://www.w3.org/1999/xlink">
    <title>banner enseignement</title>
    <g id="banner-enseignement" stroke="none" stroke-width="1" fill="none" fill-rule="evenodd">
        <g id="logo-enseignement" transform="translate(5.000000, 4.000000)" fill-rule="nonzero">
            <path d="M12.7253621,0 C10.3054917,0 8.64881118,1.27351961 8.55573924,2.14022046 C8.46266731,3.09536016 9.09555649,4.0328121 9.97043272,4.68725968 C16.3737821,9.44527044 -2.09169056,18.6959754 0.197879133,37.5157652 C1.81733087,50.8346578 17.9373907,69 21.2693661,69 C21.3996668,69 21.5113531,68.9646245 21.5858107,68.9115611 C24.1545962,67.3373494 14.0283693,49.8795181 11.7015708,44.1309921 C6.54538536,31.2189182 14.3261995,22.9410408 17.3603447,18.1476544 C21.3438236,11.8154319 22.3117718,5.83696488 19.2031691,2.95385799 C16.8391418,0.742886439 14.5495721,0 12.7253621,0" id="Path" fill="#1D1D1B"></path>
            <g id="Group" transform="translate(461.000000, 20.000000)" fill="#1D1D1B">
                <polygon id="Path" points="4.61226611 6.59240506 4.61226611 12.3873418 12.3877339 12.3873418 12.3877339 16.0734177 4.61226611 16.0734177 4.61226611 22.2050633 13.3773389 22.2050633 13.3773389 25.9797468 0 25.9797468 0 2.81772152 13.3773389 2.81772152 13.3773389 6.59240506 4.61226611 6.59240506"></polygon>
                <path d="M32.9927235,9.41012658 C34.3357588,10.7924051 35.0072765,12.7240506 35.0072765,15.1873418 L35.0072765,25.9620253 L30.3773389,25.9620253 L30.3773389,15.8253165 C30.3773389,14.3721519 30.006237,13.2379747 29.2817048,12.4582278 C28.5571726,11.678481 27.5675676,11.2886076 26.3128898,11.2886076 C25.0582121,11.2886076 24.0155925,11.678481 23.2910603,12.4582278 C22.5488565,13.2379747 22.1777547,14.3721519 22.1777547,15.8253165 L22.1777547,25.9620253 L17.547817,25.9620253 L17.547817,7.60253165 L22.1777547,7.60253165 L22.1777547,9.88860759 C22.7962578,9.09113924 23.5738046,8.47088608 24.545738,8.01012658 C25.5,7.54936709 26.5602911,7.33670886 27.6912682,7.33670886 C29.8825364,7.33670886 31.6320166,8.0278481 32.975052,9.41012658 L32.9927235,9.41012658 Z" id="Path"></path>
                <path d="M42.3762994,25.4658228 C41.1923077,24.9341772 40.2380457,24.1898734 39.5488565,23.2683544 C38.8596674,22.3468354 38.470894,21.3189873 38.4178794,20.1848101 L43.0831601,20.1848101 C43.1715177,20.8936709 43.524948,21.478481 44.1257796,21.9392405 C44.7266112,22.4 45.4864865,22.6303797 46.3877339,22.6303797 C47.2889813,22.6303797 47.960499,22.4531646 48.4553015,22.0987342 C48.950104,21.7443038 49.1975052,21.3012658 49.1975052,20.7341772 C49.1975052,20.1316456 48.8970894,19.6886076 48.2962578,19.3873418 C47.6954262,19.0860759 46.7234927,18.7670886 45.3981289,18.4126582 C44.037422,18.0759494 42.9064449,17.7392405 42.0405405,17.3848101 C41.1746362,17.0303797 40.4147609,16.4987342 39.7962578,15.7544304 C39.1777547,15.0278481 38.8596674,14.035443 38.8596674,12.8126582 C38.8596674,11.8025316 39.1600832,10.8632911 39.7432432,10.0303797 C40.3264033,9.19746835 41.1569647,8.52405063 42.2525988,8.04556962 C43.3482328,7.56708861 44.6205821,7.31898734 46.1049896,7.31898734 C48.2962578,7.31898734 50.0280665,7.86835443 51.3357588,8.96708861 C52.6257796,10.0658228 53.3503119,11.5367089 53.491684,13.3974684 L49.0561331,13.3974684 C48.985447,12.6708861 48.6850312,12.0860759 48.1548857,11.6607595 C47.6070686,11.235443 46.9002079,11.0227848 45.981289,11.0227848 C45.1507277,11.0227848 44.4968815,11.1822785 44.0550936,11.4835443 C43.5956341,11.7848101 43.3835759,12.2278481 43.3835759,12.7772152 C43.3835759,13.3974684 43.6839917,13.8582278 44.3024948,14.1949367 C44.9209979,14.5316456 45.8752599,14.8329114 47.1829522,15.1696203 C48.508316,15.5063291 49.6039501,15.843038 50.452183,16.1974684 C51.3004158,16.5518987 52.0602911,17.1012658 52.6787942,17.8455696 C53.2972973,18.5898734 53.6330561,19.564557 53.6507277,20.7873418 C53.6507277,21.8506329 53.3503119,22.7898734 52.7848233,23.6405063 C52.2016632,24.4734177 51.3711019,25.1291139 50.2754678,25.6075949 C49.1798337,26.0860759 47.9074844,26.3164557 46.45842,26.3164557 C45.0093555,26.3164557 43.6133056,26.0506329 42.4293139,25.5012658 L42.3762994,25.4658228 Z" id="Path"></path>
                <path d="M74.3087318,18.1822785 L60.9313929,18.1822785 C61.037422,19.5113924 61.4968815,20.5392405 62.3097713,21.3012658 C63.1226611,22.0455696 64.1299376,22.435443 65.3139293,22.435443 C67.0280665,22.435443 68.2474012,21.6911392 68.989605,20.2202532 L73.972973,20.2202532 C73.4428274,21.9924051 72.4355509,23.4455696 70.9334719,24.5797468 C69.4313929,25.7139241 67.5935551,26.2810127 65.4199584,26.2810127 C63.6528067,26.2810127 62.0800416,25.8911392 60.6839917,25.1113924 C59.2879418,24.3316456 58.1923077,23.2151899 57.4147609,21.7797468 C56.6372141,20.3443038 56.2484407,18.678481 56.2484407,16.8 C56.2484407,14.921519 56.6372141,13.2379747 57.3970894,11.8025316 C58.1569647,10.3670886 59.2525988,9.26835443 60.6309771,8.48860759 C62.027027,7.70886076 63.6174636,7.33670886 65.4199584,7.33670886 C67.2224532,7.33670886 68.7245322,7.70886076 70.1029106,8.47088608 C71.481289,9.23291139 72.54158,10.2962025 73.3014553,11.6607595 C74.0613306,13.043038 74.450104,14.6202532 74.450104,16.4101266 C74.450104,17.0658228 74.3970894,17.6683544 74.3264033,18.2 L74.3087318,18.1822785 Z M69.6434511,15.0632911 C69.6257796,13.8759494 69.2016632,12.9189873 68.3534304,12.1924051 C67.522869,11.4835443 66.497921,11.1113924 65.2785863,11.1113924 C64.1299376,11.1113924 63.1756757,11.4658228 62.3804574,12.156962 C61.6029106,12.8481013 61.1257796,13.8227848 60.9490644,15.0632911 L69.6434511,15.0632911 L69.6434511,15.0632911 Z" id="Shape"></path>
                <path d="M78.1257796,4.64303797 C77.5779626,4.12911392 77.3128898,3.47341772 77.3128898,2.71139241 C77.3128898,1.94936709 77.5779626,1.29367089 78.1257796,0.779746835 C78.6735967,0.265822785 79.3451143,0 80.1580042,0 C80.970894,0 81.6600832,0.265822785 82.1902287,0.779746835 C82.7203742,1.29367089 83.0031185,1.94936709 83.0031185,2.71139241 C83.0031185,3.47341772 82.7380457,4.12911392 82.1902287,4.64303797 C81.6424116,5.15696203 80.970894,5.42278481 80.1580042,5.42278481 C79.3451143,5.42278481 78.6735967,5.15696203 78.1257796,4.64303797 Z M82.4376299,7.60253165 L82.4376299,25.9620253 L77.8076923,25.9620253 L77.8076923,7.60253165 L82.4376299,7.60253165 Z" id="Shape"></path>
                <path d="M97.7588358,8.1164557 C98.8014553,8.66582278 99.6143451,9.35696203 100.197505,10.2253165 L100.197505,7.60253165 L104.862786,7.60253165 L104.862786,26.0860759 C104.862786,27.7873418 104.527027,29.3113924 103.837838,30.6405063 C103.148649,31.9696203 102.123701,33.0329114 100.762994,33.8303797 C99.4022869,34.6101266 97.7411642,35 95.8149688,35 C93.2172557,35 91.0790021,34.3974684 89.4178794,33.1746835 C87.7567568,31.9518987 86.8024948,30.3037975 86.5904366,28.1949367 L91.1850312,28.1949367 C91.4324324,29.0278481 91.9449064,29.7012658 92.7577963,30.1974684 C93.5530146,30.6936709 94.5426195,30.9417722 95.6735967,30.9417722 C97.016632,30.9417722 98.1122661,30.5341772 98.9428274,29.7367089 C99.7733888,28.921519 100.197505,27.7164557 100.197505,26.0683544 L100.197505,23.2151899 C99.5966736,24.0835443 98.7837838,24.7924051 97.7411642,25.3772152 C96.6985447,25.9443038 95.4968815,26.2455696 94.1538462,26.2455696 C92.6164241,26.2455696 91.2027027,25.8556962 89.9303534,25.0582278 C88.6580042,24.2607595 87.6507277,23.1443038 86.9085239,21.6911392 C86.1663202,20.2379747 85.7952183,18.5898734 85.7952183,16.7113924 C85.7952183,14.8329114 86.1663202,13.2025316 86.9085239,11.7670886 C87.6507277,10.3316456 88.6580042,9.23291139 89.9126819,8.45316456 C91.1850312,7.67341772 92.5987526,7.30126582 94.1538462,7.30126582 C95.514553,7.30126582 96.7162162,7.56708861 97.7588358,8.1164557 Z M99.543659,13.8759494 C99.1018711,13.078481 98.5010395,12.4582278 97.7588358,12.0151899 C97.016632,11.5721519 96.2037422,11.3772152 95.3555094,11.3772152 C94.5072765,11.3772152 93.6943867,11.5898734 92.9698545,12.0151899 C92.2453222,12.4405063 91.6444906,13.043038 91.2027027,13.8582278 C90.7432432,14.6556962 90.531185,15.6126582 90.531185,16.7291139 C90.531185,17.8455696 90.7609148,18.8025316 91.2027027,19.635443 C91.6444906,20.4683544 92.2453222,21.1063291 92.987526,21.5493671 C93.7297297,21.9924051 94.5072765,22.2050633 95.3555094,22.2050633 C96.2037422,22.2050633 97.016632,21.9924051 97.7588358,21.5670886 C98.5010395,21.1417722 99.1018711,20.521519 99.543659,19.7063291 C99.985447,18.9088608 100.197505,17.9341772 100.197505,16.8 C100.197505,15.6658228 99.9677755,14.7088608 99.543659,13.8936709 L99.543659,13.8759494 Z" id="Shape"></path>
                <path d="M124.831601,9.41012658 C126.174636,10.7924051 126.846154,12.7240506 126.846154,15.1873418 L126.846154,25.9620253 L122.216216,25.9620253 L122.216216,15.8253165 C122.216216,14.3721519 121.845114,13.2379747 121.120582,12.4582278 C120.39605,11.678481 119.406445,11.2886076 118.151767,11.2886076 C116.897089,11.2886076 115.872141,11.678481 115.129938,12.4582278 C114.387734,13.2379747 114.016632,14.3721519 114.016632,15.8253165 L114.016632,25.9620253 L109.386694,25.9620253 L109.386694,7.60253165 L114.016632,7.60253165 L114.016632,9.88860759 C114.635135,9.09113924 115.430353,8.47088608 116.384615,8.01012658 C117.338877,7.54936709 118.399168,7.33670886 119.547817,7.33670886 C121.721414,7.33670886 123.488565,8.0278481 124.831601,9.41012658 L124.831601,9.41012658 Z" id="Path"></path>
                <path d="M148.122661,18.1822785 L134.745322,18.1822785 C134.851351,19.5113924 135.310811,20.5392405 136.141372,21.3012658 C136.954262,22.0455696 137.961538,22.435443 139.14553,22.435443 C140.859667,22.435443 142.079002,21.6911392 142.821206,20.2202532 L147.804574,20.2202532 C147.274428,21.9924051 146.267152,23.4455696 144.765073,24.5797468 C143.262994,25.7139241 141.425156,26.2810127 139.251559,26.2810127 C137.484407,26.2810127 135.911642,25.8911392 134.515593,25.1113924 C133.119543,24.3316456 132.023909,23.2151899 131.246362,21.7797468 C130.468815,20.3443038 130.080042,18.678481 130.080042,16.8 C130.080042,14.921519 130.468815,13.2379747 131.22869,11.8025316 C131.988565,10.3670886 133.0842,9.26835443 134.462578,8.48860759 C135.840956,7.70886076 137.449064,7.33670886 139.251559,7.33670886 C141.054054,7.33670886 142.556133,7.70886076 143.934511,8.47088608 C145.31289,9.21518987 146.373181,10.2962025 147.133056,11.6607595 C147.892931,13.043038 148.264033,14.6202532 148.264033,16.4101266 C148.264033,17.0658228 148.22869,17.6683544 148.140333,18.2 L148.122661,18.1822785 Z M143.45738,15.0632911 C143.439709,13.8759494 142.997921,12.9189873 142.16736,12.1924051 C141.336798,11.4835443 140.31185,11.1113924 139.092516,11.1113924 C137.943867,11.1113924 136.989605,11.4658228 136.194387,12.156962 C135.41684,12.8481013 134.939709,13.8227848 134.745322,15.0632911 L143.439709,15.0632911 L143.45738,15.0632911 Z" id="Shape"></path>
                <path d="M179.807692,9.41012658 C181.186071,10.7924051 181.87526,12.7240506 181.87526,15.1873418 L181.87526,25.9620253 L177.245322,25.9620253 L177.245322,15.8253165 C177.245322,14.3898734 176.87422,13.2911392 176.149688,12.5291139 C175.425156,11.7670886 174.435551,11.3772152 173.180873,11.3772152 C171.926195,11.3772152 170.93659,11.7670886 170.194387,12.5291139 C169.452183,13.2911392 169.081081,14.3898734 169.081081,15.8253165 L169.081081,25.9620253 L164.451143,25.9620253 L164.451143,15.8253165 C164.451143,14.3898734 164.080042,13.2911392 163.355509,12.5291139 C162.630977,11.7670886 161.641372,11.3772152 160.386694,11.3772152 C159.132017,11.3772152 158.107069,11.7670886 157.364865,12.5291139 C156.622661,13.2911392 156.251559,14.3898734 156.251559,15.8253165 L156.251559,25.9620253 L151.621622,25.9620253 L151.621622,7.60253165 L156.251559,7.60253165 L156.251559,9.81772152 C156.852391,9.03797468 157.612266,8.43544304 158.548857,7.99240506 C159.485447,7.54936709 160.510395,7.33670886 161.641372,7.33670886 C163.072765,7.33670886 164.345114,7.63797468 165.476091,8.24050633 C166.607069,8.84303797 167.472973,9.71139241 168.091476,10.8455696 C168.674636,9.78227848 169.558212,8.93164557 170.689189,8.29367089 C171.820166,7.6556962 173.057173,7.33670886 174.364865,7.33670886 C176.609148,7.33670886 178.429314,8.0278481 179.807692,9.41012658 L179.807692,9.41012658 Z" id="Path"></path>
                <path d="M203.151767,18.1822785 L189.774428,18.1822785 C189.880457,19.5113924 190.339917,20.5392405 191.170478,21.3012658 C191.983368,22.0455696 192.990644,22.435443 194.174636,22.435443 C195.888773,22.435443 197.108108,21.6911392 197.850312,20.2202532 L202.83368,20.2202532 C202.303534,21.9924051 201.296258,23.4455696 199.794179,24.5797468 C198.2921,25.7139241 196.454262,26.2810127 194.280665,26.2810127 C192.513514,26.2810127 190.940748,25.8911392 189.544699,25.1113924 C188.148649,24.3316456 187.053015,23.2151899 186.275468,21.7797468 C185.497921,20.3443038 185.109148,18.678481 185.109148,16.8 C185.109148,14.921519 185.497921,13.2379747 186.257796,11.8025316 C187.017672,10.3670886 188.113306,9.26835443 189.491684,8.48860759 C190.887734,7.70886076 192.47817,7.33670886 194.280665,7.33670886 C196.08316,7.33670886 197.585239,7.70886076 198.963617,8.47088608 C200.341996,9.21518987 201.402287,10.2962025 202.162162,11.6607595 C202.922037,13.043038 203.310811,14.6202532 203.310811,16.4101266 C203.310811,17.0658228 203.257796,17.6683544 203.18711,18.2 L203.151767,18.1822785 Z M198.486486,15.0632911 C198.468815,13.8759494 198.027027,12.9189873 197.196466,12.1924051 C196.365904,11.4835443 195.340956,11.1113924 194.121622,11.1113924 C192.972973,11.1113924 192.00104,11.4658228 191.223493,12.156962 C190.445946,12.8481013 189.968815,13.8227848 189.7921,15.0632911 L198.486486,15.0632911 L198.486486,15.0632911 Z" id="Shape"></path>
                <path d="M222.077963,9.41012658 C223.420998,10.7924051 224.092516,12.7240506 224.092516,15.1873418 L224.092516,25.9620253 L219.462578,25.9620253 L219.462578,15.8253165 C219.462578,14.3721519 219.091476,13.2379747 218.366944,12.4582278 C217.642412,11.678481 216.652807,11.2886076 215.398129,11.2886076 C214.143451,11.2886076 213.118503,11.678481 212.376299,12.4582278 C211.634096,13.2379747 211.262994,14.3721519 211.262994,15.8253165 L211.262994,25.9620253 L206.633056,25.9620253 L206.633056,7.60253165 L211.262994,7.60253165 L211.262994,9.88860759 C211.881497,9.09113924 212.676715,8.47088608 213.630977,8.01012658 C214.585239,7.54936709 215.64553,7.33670886 216.794179,7.33670886 C218.967775,7.33670886 220.734927,8.0278481 222.077963,9.41012658 L222.077963,9.41012658 Z" id="Path"></path>
                <path d="M233.882536,11.4303797 L233.882536,20.3088608 C233.882536,20.9291139 234.023909,21.3721519 234.324324,21.6556962 C234.62474,21.9392405 235.119543,22.0632911 235.826403,22.0632911 L237.982328,22.0632911 L237.982328,25.9797468 L235.0842,25.9797468 C231.178794,25.9797468 229.234927,24.0835443 229.234927,20.2734177 L229.234927,11.4303797 L227.061331,11.4303797 L227.061331,7.62025316 L229.234927,7.62025316 L229.234927,3.0835443 L233.900208,3.0835443 L233.900208,7.62025316 L238,7.62025316 L238,11.4303797 L233.900208,11.4303797 L233.882536,11.4303797 Z" id="Path"></path>
            </g>
            <rect id="Rectangle" fill="#3B96C8" x="391" y="5" width="49" height="11"></rect>
            <rect id="Rectangle" fill="#3B96C8" x="391" y="29" width="37" height="11"></rect>
            <rect id="Rectangle" fill="#3B96C8" x="391" y="53" width="49" height="11"></rect>
            <rect id="Rectangle" fill="#1D1D1B" x="366" y="0" width="2" height="69"></rect>
            <path d="M56.2695028,5.01775148 C56.0601558,5.01775148 55.8682543,5.01775148 55.6589073,5.01775148 C33.625132,6.0295858 30.4151441,33.5088757 30.3453618,43.4674556 C30.3453618,44.3195266 30.4151441,48.6863905 29.4207457,48.6863905 C29.2288442,48.6863905 28.984606,48.5088757 28.6880311,48.0828402 C27.5366224,46.4142012 24.2742978,41.5857988 23.2973449,40.2721893 C23.0182156,39.8994083 22.6344127,39.7218935 22.2680553,39.7218935 C21.483004,39.7218935 20.7502894,40.5384615 21.0817555,42.2071006 C21.2562114,43.0414201 23.4369096,52.4319527 26.5771151,56.3017751 C27.4842856,57.4201183 29.5603104,59 31.7061175,59 C33.8519246,59 35.9453949,57.5088757 37.166586,52.6272189 C39.2600563,45.0828402 36.7653375,15.1183432 61.869536,11.6923077 C63.8583328,11.4260355 64.608493,9.01183432 63.4570843,7.60946746 C62.6371418,6.61538462 60.1075318,5 56.2695028,5" id="Path" fill="#1D1D1B"></path>
            <path d="M68.4301552,31.5568649 C67.631929,31.3064092 67.578714,30.8054977 68.1818182,29.8931232 C69.1929047,28.3546092 73.3614191,19.1056361 68.2350333,14.2575283 C67.827051,13.863955 67.2771619,13.452492 66.691796,13.1662568 C65.751663,12.7011247 64.5631929,13.2020362 64.5809313,14.7942192 C64.7050998,26.5298602 58.9756098,28.783962 50.9756098,28.8555208 L50.0177384,28.8555208 L50.0177384,34.2403194 L57.113082,34.7412309 L57.2372506,34.7412309 C64.9002217,35.3673703 69.5121951,40.4659339 69.5121951,46.3516441 C69.5121951,53.4180742 63.6940133,57.9978366 57.2372506,57.9978366 C55.1086475,57.9978366 52.9090909,57.5505942 51.135255,56.4235433 C50.7982262,56.2088669 50.3547672,55.8868524 50,55.6185069 C50,56.5308814 50,67.1215819 50,67.1215819 C52.4478936,68.3023018 55.2150776,69 58.7982262,69 C69.1042129,69 82,61.3432098 82,47.9438271 C82,40.9668454 76.2527716,34.0435328 68.4124169,31.5568649" id="Path" fill="#1D1D1B"></path>
            <path d="M342.190528,56.6983373 C341.645014,56.0665083 340.606778,55.3515439 339.058223,54.5866983 L338.706279,54.4038005 C337.896806,54.0047506 337.351293,53.672209 337.069737,53.3895487 C336.788182,53.1235154 336.647404,52.7743468 336.647404,52.3752969 C336.647404,51.8764846 336.805779,51.5106888 337.104932,51.2612827 C337.404084,51.0118765 337.861612,50.8788599 338.477515,50.8788599 C338.970237,50.8788599 339.427765,50.9619952 339.797306,51.1448931 C340.184445,51.3111639 340.536389,51.5938242 340.888334,51.9928741 L342.472083,50.5795724 L342.313708,50.4299287 C341.820986,49.9643705 341.240278,49.5985748 340.589181,49.3657957 C339.938084,49.1163895 339.234195,49 338.477515,49 C337.228112,49 336.242668,49.2992874 335.503585,49.9311164 C334.782099,50.5463183 334.412557,51.3942993 334.412557,52.4584323 C334.412557,52.8907363 334.482946,53.2897862 334.606126,53.6555819 C334.729307,54.0047506 334.922876,54.3372922 335.186835,54.6199525 C335.46839,54.935867 335.837932,55.2517815 336.330654,55.567696 C336.805779,55.8836105 337.404084,56.2327791 338.143167,56.5985748 L338.495112,56.7648456 C339.410167,57.2137767 340.008473,57.6294537 340.290028,57.9952494 C340.589181,58.3610451 340.729959,58.7767221 340.729959,59.2422803 C340.729959,59.824228 340.536389,60.2731591 340.14925,60.6057007 C339.762112,60.9382423 339.234195,61.1045131 338.565501,61.1045131 C338.00239,61.1045131 337.49207,60.9881235 337.016945,60.7387173 C336.559418,60.5059382 336.031501,60.0902613 335.450793,59.5083135 L333.902238,61.0047506 L334.060613,61.1377672 C334.764501,61.8028504 335.46839,62.2850356 336.189876,62.567696 C336.893765,62.8669834 337.703237,63 338.618292,63 C339.955681,63 341.029111,62.6674584 341.820986,61.9857482 C342.612861,61.304038 343,60.3729216 343,59.175772 C343,58.1615202 342.736042,57.3467933 342.190528,56.6983373 M324.241364,60.6555819 C324.118184,60.6555819 324.0126,60.6555819 323.942212,60.6888361 C323.871823,60.7054632 323.801434,60.7553444 323.731045,60.8052257 L323.660656,60.7387173 C323.660656,60.7387173 323.748642,60.6057007 323.783837,60.5391924 C323.801434,60.4726841 323.819031,60.3895487 323.819031,60.2731591 L323.819031,57.2969121 C323.819031,57.1971496 323.819031,57.1140143 323.783837,57.0475059 C323.766239,56.9809976 323.713448,56.8978622 323.660656,56.8313539 L323.731045,56.7648456 C323.731045,56.7648456 323.871823,56.8646081 323.924614,56.8812352 C323.977406,56.8978622 324.082989,56.9144893 324.223767,56.9144893 L329.045405,56.9144893 L329.045405,54.8693587 L324.223767,54.8693587 C324.100587,54.8693587 324.0126,54.8693587 323.942212,54.9026128 C323.871823,54.9026128 323.801434,54.9691211 323.713448,55.0190024 L323.643059,54.935867 C323.713448,54.8361045 323.748642,54.7529691 323.766239,54.7030879 C323.783837,54.6365796 323.801434,54.5700713 323.801434,54.4703088 L323.801434,51.7268409 C323.801434,51.6270784 323.801434,51.543943 323.766239,51.4774347 C323.731045,51.4109264 323.695851,51.327791 323.643059,51.2612827 L323.713448,51.1947743 C323.819031,51.2612827 323.907017,51.2945368 323.977406,51.327791 C324.047795,51.3444181 324.135781,51.3610451 324.223767,51.3610451 L329.749294,51.3610451 L329.502933,49.2826603 L321.531393,49.2826603 L321.531393,62.7672209 L329.485336,62.7672209 L329.749294,60.6888361 L324.223767,60.6888361 L324.241364,60.6555819 Z M312.451227,60.6555819 C312.328047,60.6555819 312.222464,60.6555819 312.152075,60.6888361 C312.081686,60.7054632 312.028894,60.7553444 311.958505,60.8052257 L311.870519,60.7220903 C311.870519,60.7220903 311.976103,60.6057007 311.9937,60.5391924 C312.011297,60.4726841 312.028894,60.3895487 312.028894,60.2565321 L312.028894,49.216152 L309.670867,49.216152 L309.670867,62.7339667 L316.920921,62.7339667 L317.272866,60.6555819 L312.43363,60.6555819 L312.451227,60.6555819 Z M300.573104,60.6555819 C300.449924,60.6555819 300.344341,60.6555819 300.273952,60.6888361 C300.203563,60.7054632 300.133174,60.7553444 300.062785,60.8052257 L299.992396,60.7220903 C299.992396,60.7220903 300.09798,60.6057007 300.115577,60.5391924 C300.133174,60.4726841 300.150771,60.3895487 300.150771,60.2565321 L300.150771,49.216152 L297.792744,49.216152 L297.792744,62.7339667 L305.042798,62.7339667 L305.394743,60.6555819 L300.555507,60.6555819 L300.573104,60.6555819 Z M287.199218,60.6555819 C287.076037,60.6555819 286.970454,60.6555819 286.900065,60.6888361 C286.829676,60.7054632 286.759287,60.7553444 286.688899,60.8052257 L286.61851,60.7387173 C286.61851,60.7387173 286.706496,60.6057007 286.74169,60.5391924 C286.759287,60.4726841 286.776885,60.3895487 286.776885,60.2731591 L286.776885,57.2969121 C286.776885,57.1971496 286.776885,57.1140143 286.74169,57.0475059 C286.724093,56.9809976 286.671301,56.8978622 286.61851,56.8313539 L286.706496,56.7648456 C286.706496,56.7648456 286.847274,56.8646081 286.900065,56.8812352 C286.952857,56.8978622 287.05844,56.9144893 287.199218,56.9144893 L292.020856,56.9144893 L292.020856,54.8693587 L287.199218,54.8693587 C287.076037,54.8693587 286.988051,54.8693587 286.917662,54.9026128 C286.847274,54.9026128 286.776885,54.9691211 286.688899,55.0190024 L286.61851,54.935867 C286.688899,54.8361045 286.724093,54.7529691 286.759287,54.7030879 C286.776885,54.6365796 286.794482,54.5700713 286.794482,54.4703088 L286.794482,51.7268409 C286.794482,51.6270784 286.794482,51.543943 286.759287,51.4774347 C286.724093,51.4109264 286.688899,51.327791 286.636107,51.2612827 L286.706496,51.1947743 C286.812079,51.2612827 286.900065,51.2945368 286.970454,51.327791 C287.040843,51.3444181 287.128829,51.3610451 287.216815,51.3610451 L292.724745,51.3610451 L292.478384,49.2826603 L284.506843,49.2826603 L284.506843,62.7672209 L292.460786,62.7672209 L292.724745,60.6888361 L287.216815,60.6888361 L287.199218,60.6555819 Z M276.165761,56.1828979 C276.095373,56.0665083 276.042581,55.9833729 276.007386,55.9501188 C275.972192,55.9168646 275.901803,55.8836105 275.831414,55.8669834 L275.831414,55.783848 C275.831414,55.783848 275.972192,55.7339667 276.007386,55.7007126 C276.042581,55.6674584 276.11297,55.584323 276.165761,55.4679335 L279.913969,49.2327791 L277.327178,49.2327791 L275.197914,53.023753 C275.021942,53.3230404 274.898762,53.5724466 274.84597,53.7719715 C274.775581,53.9548694 274.740387,54.2707838 274.705192,54.6864608 L274.599609,54.6864608 C274.564415,54.2874109 274.511623,54.0047506 274.458831,53.8052257 C274.388442,53.6057007 274.282859,53.3562945 274.106887,53.04038 L271.960026,49.2494062 L269.390832,49.2494062 L273.121443,55.4845606 C273.191831,55.584323 273.244623,55.6508314 273.279818,55.7007126 C273.332609,55.7505938 273.402998,55.7672209 273.473387,55.8004751 L273.473387,55.8836105 C273.473387,55.8836105 273.332609,55.9334917 273.279818,55.9833729 C273.227026,56.0332542 273.174234,56.0997625 273.121443,56.1995249 L269.250054,62.7672209 L271.854443,62.7672209 L274.124484,58.6603325 C274.335651,58.2945368 274.458831,58.0118765 274.511623,57.8123515 C274.564415,57.6128266 274.599609,57.3467933 274.634803,56.9976247 L274.740387,56.9976247 C274.775581,57.3800475 274.810776,57.6793349 274.881164,57.8622328 C274.933956,58.0617577 275.057137,58.3111639 275.233109,58.6437055 L277.50315,62.7505938 L280.089941,62.7505938 L276.200956,56.1828979 L276.165761,56.1828979 Z M265.026722,49.2494062 L262.686292,49.2494062 L262.686292,57.064133 C262.686292,58.3610451 262.422333,59.3254157 261.859222,59.9572447 C261.313708,60.5890736 260.486639,60.9049881 259.360417,60.9049881 C258.234195,60.9049881 257.424723,60.5890736 256.861612,59.9572447 C256.316098,59.3254157 256.034543,58.3610451 256.034543,57.064133 L256.034543,49.2494062 L253.694113,49.2494062 L253.694113,56.8313539 C253.694113,57.9453682 253.817293,58.8598575 254.046057,59.5581948 C254.274821,60.2565321 254.644362,60.8551069 255.137085,61.3372922 C255.682598,61.8693587 256.298501,62.2850356 257.037584,62.567696 C257.776667,62.8503563 258.550945,63 259.360417,63 C260.169889,63 260.961764,62.8503563 261.68325,62.567696 C262.404736,62.2850356 263.038236,61.8693587 263.58375,61.3372922 C264.076472,60.8551069 264.428416,60.2565321 264.674777,59.5581948 C264.903541,58.8598575 265.026722,57.9453682 265.026722,56.8313539 L265.026722,49.2494062 Z M245.86335,57.3966746 C245.722572,57.2137767 245.564197,57.0475059 245.370628,56.8812352 C245.177058,56.7149644 244.948295,56.5653207 244.684336,56.415677 L244.719531,56.3491686 C244.895503,56.3990499 245.053878,56.432304 245.194656,56.4489311 C245.335433,56.4655582 245.476211,56.4821853 245.599392,56.4821853 C246.479253,56.4821853 247.235933,56.1496437 247.834239,55.4845606 C248.432544,54.8194774 248.749294,54.0047506 248.749294,53.04038 C248.749294,51.8099762 248.344558,50.8788599 247.552683,50.2137767 C246.760808,49.5653207 245.599392,49.2327791 244.086031,49.2327791 L240.302629,49.2327791 L240.302629,62.7173397 L242.555073,62.7173397 L242.555073,57.9619952 C242.555073,57.4631829 242.555073,57.0807601 242.519878,56.847981 C242.484684,56.6152019 242.449489,56.3325416 242.379101,56.0166271 L242.484684,55.9833729 C242.590267,56.2660333 242.713448,56.5154394 242.836628,56.7149644 C242.959809,56.9144893 243.153378,57.2137767 243.434934,57.5795724 L247.095155,62.7173397 L249.646752,62.7173397 L245.880947,57.3634204 L245.86335,57.3966746 Z M246.056919,54.52019 C245.687378,54.8361045 245.10667,54.9857482 244.332392,54.9857482 L242.942212,54.9857482 C242.819031,54.9857482 242.713448,54.9857482 242.660656,55.0190024 C242.590267,55.0356295 242.537476,55.0855107 242.449489,55.1353919 L242.361503,55.0688836 C242.361503,55.0688836 242.502281,54.9026128 242.519878,54.8361045 C242.555073,54.7695962 242.57267,54.6864608 242.57267,54.6033254 L242.57267,51.5106888 C242.537476,51.3942993 242.519878,51.3111639 242.484684,51.2446556 C242.449489,51.1781473 242.414295,51.111639 242.361503,51.0451306 L242.449489,50.9786223 C242.449489,50.9786223 242.607864,51.0783848 242.678253,51.0950119 C242.731045,51.111639 242.819031,51.128266 242.942212,51.128266 L244.332392,51.128266 C245.10667,51.128266 245.687378,51.2779097 246.056919,51.5938242 C246.426461,51.9097387 246.62003,52.391924 246.62003,53.0570071 C246.62003,53.7220903 246.444058,54.2209026 246.074517,54.5368171 M234.636324,56.6484561 C234.161199,56.0997625 233.492505,55.7505938 232.665436,55.6009501 L232.665436,55.4845606 C233.369324,55.2850356 233.897241,54.9691211 234.231588,54.52019 C234.565935,54.087886 234.741907,53.5059382 234.741907,52.7909739 C234.741907,51.6437055 234.354769,50.7624703 233.580491,50.1638955 C232.788616,49.5486936 231.644797,49.2494062 230.131436,49.2494062 L226.154464,49.2494062 L226.154464,62.7339667 L230.448186,62.7339667 C231.996741,62.7339667 233.193352,62.3515439 234.055616,61.6033254 C234.91788,60.8551069 235.35781,59.8907363 235.35781,58.6935867 C235.35781,57.8622328 235.129046,57.1805226 234.653921,56.631829 M232.102325,54.2874109 C231.75038,54.6199525 231.240061,54.7862233 230.571367,54.7862233 L228.723658,54.7862233 C228.600478,54.7862233 228.512492,54.7862233 228.4597,54.8194774 C228.389311,54.8361045 228.318922,54.8859857 228.248534,54.9524941 L228.160547,54.8693587 C228.160547,54.8693587 228.160547,54.8361045 228.195742,54.8194774 C228.301325,54.6698337 228.354117,54.5368171 228.354117,54.3871734 L228.354117,51.4940618 C228.354117,51.4109264 228.33652,51.327791 228.301325,51.2779097 C228.283728,51.2114014 228.230936,51.128266 228.160547,51.0285036 L228.248534,50.9619952 C228.248534,50.9619952 228.389311,51.0617577 228.4597,51.0783848 C228.512492,51.0950119 228.618075,51.111639 228.741256,51.111639 L230.307408,51.111639 C231.134478,51.111639 231.732783,51.2612827 232.102325,51.543943 C232.471866,51.8266033 232.647838,52.2755344 232.647838,52.8907363 C232.647838,53.5059382 232.471866,53.9714964 232.102325,54.304038 M232.524658,60.2565321 C232.06713,60.6389549 231.451227,60.8384798 230.641755,60.8384798 L228.741256,60.8384798 C228.618075,60.8384798 228.530089,60.8384798 228.4597,60.871734 C228.406909,60.888361 228.33652,60.9382423 228.248534,60.9881235 L228.178145,60.9049881 C228.248534,60.8218527 228.301325,60.7553444 228.318922,60.7054632 C228.33652,60.6555819 228.354117,60.5724466 228.354117,60.456057 L228.354117,56.9809976 C228.354117,56.8812352 228.354117,56.8147268 228.318922,56.7482185 C228.318922,56.6817102 228.248534,56.6152019 228.178145,56.5154394 L228.248534,56.432304 C228.33652,56.4988124 228.406909,56.5320665 228.4597,56.5653207 C228.530089,56.5819477 228.618075,56.5985748 228.741256,56.5985748 L230.553769,56.5985748 C231.064089,56.5985748 231.468825,56.6484561 231.785575,56.7315914 C232.102325,56.8313539 232.366283,56.9809976 232.595047,57.2137767 C232.771019,57.3966746 232.929394,57.6294537 233.034977,57.8788599 C233.140561,58.128266 233.193352,58.3942993 233.193352,58.6769596 C233.193352,59.3586698 232.964588,59.8907363 232.524658,60.2731591 M220.769715,56.8812352 L215.824897,56.8812352 L215.824897,58.8764846 L220.769715,58.8764846 L220.769715,56.8812352 Z M205.882468,60.672209 C205.759287,60.672209 205.653704,60.672209 205.583315,60.7054632 C205.512926,60.7220903 205.442537,60.7719715 205.372149,60.8218527 L205.30176,60.7553444 C205.30176,60.7553444 205.389746,60.6223278 205.42494,60.5558195 C205.460135,60.4893112 205.460135,60.4061758 205.460135,60.2897862 L205.460135,57.3135392 C205.460135,57.2137767 205.460135,57.1306413 205.42494,57.064133 C205.407343,56.9976247 205.354551,56.9144893 205.30176,56.847981 L205.372149,56.7814727 C205.372149,56.7814727 205.512926,56.8812352 205.583315,56.8978622 C205.653704,56.9144893 205.74169,56.9311164 205.882468,56.9311164 L210.704106,56.9311164 L210.704106,54.8859857 L205.882468,54.8859857 C205.759287,54.8859857 205.671301,54.8859857 205.600912,54.9192399 C205.530524,54.9192399 205.460135,54.9857482 205.372149,55.0356295 L205.284163,54.9524941 C205.354551,54.8527316 205.407343,54.7695962 205.42494,54.719715 C205.442537,54.6532067 205.460135,54.5866983 205.460135,54.4869359 L205.460135,51.7434679 C205.460135,51.6437055 205.460135,51.5605701 205.42494,51.4940618 C205.407343,51.4275534 205.354551,51.3444181 205.30176,51.2779097 L205.372149,51.2114014 C205.477732,51.2779097 205.565718,51.3111639 205.636107,51.3444181 C205.706496,51.3610451 205.794482,51.3776722 205.882468,51.3776722 L211.390398,51.3776722 L211.144036,49.2992874 L203.172496,49.2992874 L203.172496,62.783848 L211.126439,62.783848 L211.390398,60.7054632 L205.882468,60.7054632 L205.882468,60.672209 Z M197.347817,49.2494062 L195.007386,49.2494062 L195.007386,62.7672209 L197.347817,62.7672209 L197.347817,49.2494062 Z M189.182707,49.2660333 L186.912666,49.2660333 L186.912666,57.5629454 C186.912666,57.9453682 186.94786,58.3444181 187.018249,58.760095 C187.088638,59.175772 187.194221,59.6745843 187.352596,60.2731591 L187.247013,60.2731591 C187.053443,59.7743468 186.877471,59.3420428 186.701499,58.9928741 C186.525527,58.6437055 186.31436,58.2945368 186.067999,57.9619952 L179.768195,49.2826603 L177.674126,49.2826603 L177.674126,62.7672209 L179.944167,62.7672209 L179.944167,54.4536817 C179.944167,54.1045131 179.908972,53.7387173 179.856181,53.3895487 C179.803389,53.04038 179.680209,52.4916865 179.504236,51.760095 L179.60982,51.760095 C179.838584,52.3586698 180.014556,52.7909739 180.172931,53.0902613 C180.313708,53.3729216 180.524875,53.7054632 180.788833,54.0712589 L187.088638,62.7672209 L189.200304,62.7672209 L189.200304,49.2826603 L189.182707,49.2660333 Z M170.705627,50.9619952 C169.368238,49.6650831 167.626113,49.0166271 165.49685,49.0166271 C163.367586,49.0166271 161.748642,49.6650831 160.411254,50.9952494 C159.073865,52.3087886 158.405171,53.9881235 158.405171,56 C158.405171,58.0118765 159.073865,59.7244656 160.411254,61.0380048 C161.748642,62.3515439 163.455572,63 165.549642,63 C167.643711,63 169.350641,62.3515439 170.68803,61.0380048 C172.025418,59.7244656 172.694113,58.0617577 172.694113,56.0166271 C172.694113,53.9714964 172.025418,52.2755344 170.68803,50.9619952 M169.016294,59.5415677 C168.136433,60.4394299 166.992614,60.888361 165.549642,60.888361 C164.10667,60.888361 162.96285,60.4394299 162.082989,59.5415677 C161.203128,58.6437055 160.763198,57.4631829 160.763198,56 C160.763198,54.5368171 161.203128,53.3562945 162.082989,52.4584323 C162.96285,51.5605701 164.124267,51.111639 165.567239,51.111639 C167.010211,51.111639 168.118836,51.5605701 168.998697,52.4750594 C169.878557,53.3895487 170.318488,54.5534442 170.318488,56 C170.318488,57.4465558 169.878557,58.6437055 168.998697,59.5415677 M150.416033,60.672209 C150.292852,60.672209 150.187269,60.672209 150.11688,60.7054632 C150.046491,60.7220903 149.9937,60.7719715 149.923311,60.8218527 L149.835325,60.7387173 C149.835325,60.7387173 149.940908,60.6223278 149.958505,60.5558195 C149.976103,60.4893112 149.9937,60.4061758 149.9937,60.2731591 L149.9937,49.2327791 L147.635672,49.2327791 L147.635672,62.7505938 L154.885727,62.7505938 L155.237671,60.672209 L150.398436,60.672209 L150.416033,60.672209 Z M138.520313,60.672209 C138.397132,60.672209 138.291549,60.672209 138.22116,60.7054632 C138.150771,60.7220903 138.080382,60.7719715 138.027591,60.8218527 L137.939605,60.7387173 C137.939605,60.7387173 138.045188,60.6223278 138.062785,60.5558195 C138.080382,60.4893112 138.09798,60.4061758 138.09798,60.2731591 L138.09798,49.2327791 L135.739952,49.2327791 L135.739952,62.7505938 L142.990007,62.7505938 L143.341951,60.672209 L138.502716,60.672209 L138.520313,60.672209 Z M126.32544,49.2660333 L124.284163,49.2660333 L119.092983,62.7505938 L121.45101,62.7505938 L122.964371,58.6935867 L127.662829,58.6935867 L129.176189,62.7505938 L131.51662,62.7505938 L126.32544,49.2660333 Z M127.117315,56.8147268 C127.117315,56.8147268 126.976537,56.7648456 126.906148,56.7648456 C126.835759,56.7648456 126.76537,56.7482185 126.659787,56.7482185 L123.949815,56.7482185 C123.949815,56.7482185 123.79144,56.7482185 123.738649,56.7482185 C123.685857,56.7482185 123.615468,56.7814727 123.509885,56.8147268 L123.439496,56.7149644 C123.439496,56.7149644 123.545079,56.631829 123.580274,56.5819477 C123.615468,56.5320665 123.650663,56.4821853 123.66826,56.3990499 L125.023246,52.7078385 C125.093635,52.5581948 125.128829,52.3254157 125.164023,52.0427553 C125.199218,51.760095 125.234412,51.4275534 125.234412,51.0617577 L125.339996,51.0617577 C125.339996,51.4275534 125.37519,51.760095 125.410385,52.0427553 C125.445579,52.3254157 125.498371,52.5581948 125.551162,52.7078385 L126.888551,56.3990499 C126.888551,56.3990499 126.941343,56.5320665 126.976537,56.5819477 C127.011731,56.631829 127.064523,56.6650831 127.134912,56.7149644 L127.08212,56.8147268 L127.117315,56.8147268 Z M114.500109,49.2660333 L111.807734,58.128266 C111.702151,58.4774347 111.631762,58.7933492 111.596567,59.0760095 C111.561373,59.3586698 111.526179,59.807601 111.508581,60.4394299 L111.385401,60.4394299 C111.315012,59.7909739 111.26222,59.3254157 111.209429,59.0427553 C111.156637,58.760095 111.068651,58.4608076 110.963068,58.128266 L108.517054,51.2945368 L106.071041,58.1448931 C105.94786,58.4608076 105.859874,58.760095 105.807082,59.0427553 C105.754291,59.3254157 105.683902,59.7909739 105.63111,60.4394299 L105.50793,60.4394299 C105.490332,59.807601 105.455138,59.3586698 105.419944,59.0760095 C105.384749,58.8099762 105.296763,58.4940618 105.19118,58.128266 L102.498805,49.2660333 L100,49.2660333 L104.328916,62.7505938 L106.458179,62.7505938 L108.235499,57.3634204 C108.28829,57.1971496 108.341082,56.9477435 108.376276,56.6484561 C108.411471,56.3491686 108.446665,55.9667458 108.464262,55.5344418 L108.569846,55.5344418 C108.587443,55.9667458 108.622637,56.3325416 108.657832,56.631829 C108.693026,56.9311164 108.745818,57.1805226 108.79861,57.3467933 L110.593526,62.7339667 L112.705192,62.7339667 L117.051705,49.2494062 L114.5529,49.2494062 L114.500109,49.2660333 Z" id="Shape" fill="#1D1D1B"></path>
            <path d="M342.982352,11.9037378 L338.870288,11.9037378 L338.870288,27.6589862 C338.870288,28.390169 338.923233,29.15617 339.046772,29.9569892 C339.17031,30.7403994 339.364442,31.6979007 339.646815,32.8294931 L339.470332,32.8643113 C339.135013,31.8894009 338.799695,31.0711726 338.482025,30.3922171 C338.164355,29.7132616 337.776091,29.0691244 337.334883,28.4249872 L325.845813,11.921147 L322.016123,11.921147 L322.016123,37.5647721 L326.163483,37.5647721 L326.163483,21.7747056 C326.163483,21.0957501 326.110538,20.4342038 326.004648,19.7552483 C325.898758,19.0762929 325.686978,18.0491551 325.369308,16.656426 L325.545791,16.6216078 C325.969351,17.7880184 326.30467,18.6236559 326.569395,19.1633385 C326.83412,19.703021 327.204735,20.3297491 327.698889,21.0261137 L339.17031,37.5647721 L343,37.5647721 L343,11.921147 L342.982352,11.9037378 Z M309.574043,15.124424 C307.138572,12.6523297 303.979519,11.4162826 300.096884,11.4162826 C296.214249,11.4162826 293.266977,12.6697389 290.831506,15.1766513 C288.413683,17.6835637 287.195947,20.8694316 287.195947,24.6994368 C287.195947,28.5294419 288.413683,31.7849462 290.831506,34.2744496 C293.266977,36.7639529 296.373084,38 300.202774,38 C304.032464,38 307.120924,36.7639529 309.556395,34.2744496 C311.991866,31.7849462 313.22725,28.6164875 313.22725,24.734255 C313.22725,20.8520225 312.009514,17.6139273 309.556395,15.124424 M306.503232,31.436764 C304.897233,33.125448 302.79708,33.9784946 300.185126,33.9784946 C297.573172,33.9784946 295.473019,33.125448 293.86702,31.436764 C292.278669,29.7306708 291.466846,27.484895 291.466846,24.6994368 C291.466846,21.9139785 292.278669,19.6682028 293.884668,17.9621096 C295.490667,16.2560164 297.608468,15.4029698 300.220423,15.4029698 C302.832377,15.4029698 304.861936,16.2734255 306.485584,17.9969278 C308.091583,19.7204301 308.885758,21.9662058 308.885758,24.6994368 C308.885758,27.4326677 308.091583,29.7480799 306.503232,31.436764 M278.142349,11.8515105 L273.87145,11.8515105 L273.87145,37.5299539 L278.142349,37.5299539 L278.142349,11.8515105 Z M265.523785,11.8863287 L250.134432,11.8863287 L249.587334,15.733743 L254.970078,15.733743 C255.199506,15.733743 255.37599,15.7163338 255.499528,15.6641065 C255.623066,15.6292883 255.746605,15.5422427 255.870143,15.437788 L256.028978,15.5770609 C255.887791,15.7685612 255.817198,15.9252432 255.764253,16.0296979 C255.728956,16.1515617 255.711308,16.2908346 255.711308,16.4475166 L255.711308,37.5125448 L259.929261,37.5125448 L259.929261,16.4475166 C259.929261,16.2560164 259.911613,16.0993344 259.858668,15.9600614 C259.823371,15.8381976 259.73513,15.6989247 259.62924,15.5422427 L259.770426,15.4029698 C259.929261,15.5248336 260.0528,15.6118792 260.176338,15.6466974 C260.282228,15.6815156 260.458712,15.7163338 260.670492,15.7163338 L266.070884,15.7163338 L265.506137,11.8689196 L265.523785,11.8863287 Z M236.96877,11.8863287 L233.244971,11.8863287 L223.78546,37.5299539 L228.074007,37.5299539 L230.844796,29.8351254 L239.404241,29.8351254 L242.157383,37.5299539 L246.428281,37.5299539 L236.96877,11.8863287 L236.96877,11.8863287 Z M238.398286,26.2314388 C238.257099,26.1792115 238.133561,26.1443932 238.010023,26.1269841 C237.886484,26.109575 237.745297,26.0921659 237.568814,26.0921659 L232.644927,26.0921659 C232.486092,26.0921659 232.362554,26.0921659 232.256664,26.1269841 C232.150773,26.1269841 232.009587,26.1792115 231.850752,26.2488479 L231.727213,26.0747568 C231.833103,25.9877112 231.921345,25.9006656 231.991938,25.8136201 C232.044883,25.7265745 232.115477,25.6047107 232.150773,25.4654378 L234.621541,18.4321557 C234.727431,18.1362007 234.815673,17.7009729 234.886266,17.1612903 C234.95686,16.6216078 234.992156,15.9948797 235.027453,15.2985151 L235.221585,15.2985151 C235.239233,15.9948797 235.292178,16.6216078 235.362771,17.1612903 C235.433365,17.718382 235.521607,18.1362007 235.627497,18.4321557 L238.062968,25.4654378 C238.115913,25.6047107 238.168858,25.7265745 238.239451,25.8136201 C238.310044,25.9006656 238.398286,25.9877112 238.521824,26.0747568 L238.415934,26.2488479 L238.398286,26.2314388 Z M210.49626,27.3456221 C210.249183,26.9974398 209.949161,26.6666667 209.596194,26.3707117 C209.243228,26.0573477 208.819667,25.7788018 208.343162,25.500256 L208.413756,25.3783922 C208.731426,25.4654378 209.013799,25.5176651 209.278524,25.5698925 C209.543249,25.6047107 209.772678,25.6395289 210.019755,25.6395289 C211.625754,25.6395289 212.984676,25.0128008 214.096521,23.7419355 C215.208367,22.4884793 215.755465,20.9390681 215.755465,19.1111111 C215.755465,16.7782898 215.031883,14.985151 213.584719,13.7491039 C212.137555,12.5130568 210.037403,11.9037378 207.266613,11.9037378 L200.383761,11.9037378 L200.383761,37.547363 L204.495824,37.547363 L204.495824,28.5120328 C204.495824,27.5545315 204.478176,26.8407578 204.425231,26.3881208 C204.372286,25.9354839 204.284044,25.3958013 204.142857,24.8038914 L204.319341,24.7516641 C204.531121,25.2913466 204.742901,25.7613927 204.954681,26.1618024 C205.166461,26.5448029 205.519428,27.1018945 206.03123,27.7982591 L212.702302,37.5821813 L217.361464,37.5821813 L210.49626,27.3978495 L210.49626,27.3456221 Z M210.849227,21.8965694 C210.17859,22.4884793 209.119689,22.7844342 207.707822,22.7844342 L205.184109,22.7844342 C204.954681,22.7844342 204.778197,22.8018433 204.654659,22.8540707 C204.531121,22.8888889 204.407582,22.9759345 204.284044,23.0803891 L204.142857,22.9411162 C204.284044,22.7844342 204.389934,22.6451613 204.442879,22.5058884 C204.495824,22.3840246 204.531121,22.2273425 204.531121,22.0532514 L204.531121,16.1863799 C204.478176,15.9774706 204.425231,15.8033794 204.372286,15.6815156 C204.319341,15.5596518 204.248747,15.4203789 204.142857,15.2985151 L204.284044,15.1592422 C204.442879,15.281106 204.584066,15.3681516 204.689956,15.4029698 C204.795846,15.437788 204.954681,15.4551971 205.184109,15.4551971 L207.707822,15.4551971 C209.119689,15.4551971 210.17859,15.7511521 210.849227,16.343062 C211.537512,16.9349718 211.87283,17.8576549 211.87283,19.1111111 C211.87283,20.3645673 211.537512,21.3220686 210.866875,21.9313876 M182.382453,4.01740911 L180.582323,8.97900666 L183.723727,8.97900666 L187.09456,4.01740911 L182.364805,4.01740911 L182.382453,4.01740911 Z M181.411795,33.5954941 C181.182366,33.5954941 181.005883,33.6129032 180.882344,33.6651306 C180.758806,33.6999488 180.635268,33.7869944 180.494081,33.8914491 L180.370543,33.7695853 C180.458784,33.6303123 180.529378,33.5084485 180.582323,33.3865847 C180.635268,33.2647209 180.652916,33.0906298 180.652916,32.8643113 L180.652916,27.2063492 C180.652916,27.0322581 180.635268,26.875576 180.582323,26.7363031 C180.529378,26.5970302 180.458784,26.4577573 180.370543,26.3358935 L180.511729,26.1966206 C180.635268,26.3010753 180.776454,26.3707117 180.882344,26.40553 C180.988234,26.4403482 181.164718,26.4751664 181.411795,26.4751664 L190.18302,26.4751664 L190.18302,22.5929339 L181.411795,22.5929339 C181.200015,22.5929339 181.023531,22.5929339 180.899993,22.6451613 C180.776454,22.6799795 180.635268,22.7670251 180.494081,22.8714798 L180.352894,22.7322069 C180.476433,22.5407066 180.564674,22.4014337 180.599971,22.2795699 C180.635268,22.1577061 180.670564,22.0184332 180.670564,21.844342 L180.670564,16.6216078 C180.670564,16.4475166 180.652916,16.2734255 180.599971,16.1341526 C180.547026,15.9948797 180.476433,15.8556068 180.388191,15.7163338 L180.511729,15.5770609 C180.688213,15.6989247 180.847048,15.7859703 180.970586,15.8207885 C181.094124,15.8556068 181.25296,15.890425 181.429443,15.890425 L191.471349,15.890425 L191.03014,11.9385561 L176.505556,11.9385561 L176.505556,37.5821813 L190.994843,37.5821813 L191.471349,33.6303123 L181.429443,33.6303123 L181.411795,33.5954941 Z M163.957586,15.5248336 C161.36328,13.1223758 158.080689,11.9037378 154.092164,11.9037378 L147.121069,11.9037378 L147.121069,37.547363 L153.950977,37.547363 C158.06304,37.547363 161.416225,36.3461342 163.992883,33.9088582 C166.56954,31.4889913 167.857869,28.4249872 167.857869,24.7168459 C167.857869,21.0087046 166.56954,17.9098822 163.975234,15.5074245 M160.992665,31.1756272 C159.210182,32.8643113 156.933546,33.6999488 154.198054,33.6999488 L152.150846,33.6999488 C151.903769,33.6999488 151.727286,33.6999488 151.621396,33.7521761 C151.515506,33.7869944 151.391967,33.8740399 151.250781,33.9784946 L151.091946,33.8392217 C151.233132,33.6999488 151.303726,33.578085 151.356671,33.4736303 C151.391967,33.3691756 151.409616,33.1950845 151.409616,32.9513569 L151.409616,16.4823349 C151.409616,16.3082437 151.391967,16.1515617 151.339022,16.0296979 C151.303726,15.9078341 151.215484,15.7685612 151.091946,15.59447 L151.250781,15.437788 C151.409616,15.5596518 151.550803,15.6466974 151.656693,15.6815156 C151.762583,15.7163338 151.939066,15.7511521 152.150846,15.7511521 L154.409834,15.7511521 C157.074733,15.7511521 159.280776,16.6041987 161.04561,18.2928827 C162.810444,19.9815668 163.675212,22.140297 163.675212,24.734255 C163.675212,27.328213 162.775147,29.5043523 161.010313,31.1756272 M129.066817,4 L127.266686,8.96159754 L130.408091,8.96159754 L133.778924,4 L129.049168,4 L129.066817,4 Z M128.096158,33.578085 C127.86673,33.578085 127.690246,33.5954941 127.566708,33.6477215 C127.443169,33.6825397 127.319631,33.7695853 127.178444,33.8740399 L127.054906,33.7521761 C127.160796,33.6129032 127.231389,33.4910394 127.266686,33.3691756 C127.319631,33.2473118 127.337279,33.0732207 127.337279,32.8469022 L127.337279,27.1889401 C127.337279,27.014849 127.319631,26.8581669 127.266686,26.718894 C127.213741,26.5796211 127.143148,26.4403482 127.054906,26.3184844 L127.196093,26.1792115 C127.337279,26.2836662 127.460818,26.3533026 127.566708,26.3881208 C127.672598,26.4229391 127.849081,26.4577573 128.096158,26.4577573 L136.867383,26.4577573 L136.867383,22.5755248 L128.096158,22.5755248 C127.884378,22.5755248 127.707895,22.5755248 127.602005,22.6277522 C127.478466,22.6625704 127.354928,22.749616 127.196093,22.8540707 L127.054906,22.7147977 C127.178444,22.5232975 127.266686,22.3840246 127.301983,22.2621608 C127.337279,22.140297 127.372576,22.0010241 127.372576,21.8269329 L127.372576,16.6041987 C127.372576,16.4301075 127.354928,16.2560164 127.301983,16.1167435 C127.249038,15.9774706 127.178444,15.8381976 127.090203,15.6989247 L127.213741,15.5596518 C127.390224,15.6815156 127.549059,15.7685612 127.690246,15.8033794 C127.831433,15.8381976 127.97262,15.8730159 128.131455,15.8730159 L138.17336,15.8730159 L137.732152,11.921147 L123.207568,11.921147 L123.207568,37.5647721 L137.696855,37.5647721 L138.17336,33.6129032 L128.131455,33.6129032 L128.096158,33.578085 Z M114.648123,11.8863287 L100,11.8863287 L100,37.5299539 L104.288547,37.5299539 L104.288547,27.171531 C104.288547,26.9626216 104.270898,26.7885305 104.217953,26.6666667 C104.182657,26.5448029 104.094415,26.4229391 103.988525,26.266257 L104.129712,26.1269841 C104.288547,26.2488479 104.429733,26.3358935 104.535624,26.3707117 C104.641514,26.40553 104.817997,26.4403482 105.029777,26.4403482 L113.730409,26.4403482 L113.730409,22.5581157 L104.959184,22.5581157 C104.694459,22.5581157 104.500327,22.5581157 104.412085,22.6103431 C104.306195,22.6451613 104.200305,22.7147977 104.04147,22.8192524 L103.900283,22.6973886 C104.059118,22.5058884 104.165008,22.3666155 104.217953,22.2447517 C104.270898,22.1228879 104.288547,21.983615 104.288547,21.8095238 L104.288547,16.6216078 C104.235602,16.3604711 104.182657,16.1863799 104.14736,16.0819252 C104.094415,15.9774706 104.023822,15.8556068 103.917932,15.733743 L104.076767,15.59447 C104.235602,15.7163338 104.376788,15.7859703 104.482678,15.8207885 C104.588569,15.8556068 104.765052,15.8730159 104.976832,15.8730159 L115.31876,15.8730159 L114.648123,11.8863287 L114.648123,11.8863287 Z" id="Shape" fill="#1D1D1B"></path>
        </g>
    </g>
</svg>